<svg id="visual" viewBox="0 0 900 600" width="900" height="600" xmlns="http://www.w3.org/2000/svg" xmlns:xlink="http://www.w3.org/1999/xlink" version="1.1"><path d="M0 436L21.5 433.3C43 430.7 86 425.3 128.8 416.5C171.7 407.7 214.3 395.3 257.2 384C300 372.7 343 362.3 385.8 356.7C428.7 351 471.3 350 514.2 356C557 362 600 375 642.8 386.5C685.7 398 728.3 408 771.2 412.7C814 417.3 857 416.7 878.5 416.3L900 416L900 601L878.5 601C857 601 814 601 771.2 601C728.3 601 685.7 601 642.8 601C600 601 557 601 514.2 601C471.3 601 428.7 601 385.8 601C343 601 300 601 257.2 601C214.3 601 171.7 601 128.8 601C86 601 43 601 21.5 601L0 601Z" fill="#fa7268"></path><path d="M0 426L21.5 429.2C43 432.3 86 438.7 128.8 437C171.7 435.3 214.3 425.7 257.2 430.3C300 435 343 454 385.8 461.2C428.7 468.3 471.3 463.7 514.2 452.3C557 441 600 423 642.8 418.2C685.7 413.3 728.3 421.7 771.2 427.2C814 432.7 857 435.3 878.5 436.7L900 438L900 601L878.5 601C857 601 814 601 771.2 601C728.3 601 685.7 601 642.8 601C600 601 557 601 514.2 601C471.3 601 428.7 601 385.8 601C343 601 300 601 257.2 601C214.3 601 171.7 601 128.8 601C86 601 43 601 21.5 601L0 601Z" fill="#ef5f67"></path><path d="M0 497L21.5 493.8C43 490.7 86 484.3 128.8 481.3C171.7 478.3 214.3 478.7 257.2 474.5C300 470.3 343 461.7 385.8 460C428.7 458.3 471.3 463.7 514.2 470C557 476.3 600 483.7 642.8 482.7C685.7 481.7 728.3 472.3 771.2 464.3C814 456.3 857 449.7 878.5 446.3L900 443L900 601L878.5 601C857 601 814 601 771.2 601C728.3 601 685.7 601 642.8 601C600 601 557 601 514.2 601C471.3 601 428.7 601 385.8 601C343 601 300 601 257.2 601C214.3 601 171.7 601 128.8 601C86 601 43 601 21.5 601L0 601Z" fill="#e34c67"></path><path d="M0 538L21.5 538.5C43 539 86 540 128.8 530.8C171.7 521.7 214.3 502.3 257.2 496C300 489.7 343 496.3 385.8 500.8C428.7 505.3 471.3 507.7 514.2 509.8C557 512 600 514 642.8 518.3C685.7 522.7 728.3 529.3 771.2 530.2C814 531 857 526 878.5 523.5L900 521L900 601L878.5 601C857 601 814 601 771.2 601C728.3 601 685.7 601 642.8 601C600 601 557 601 514.2 601C471.3 601 428.7 601 385.8 601C343 601 300 601 257.2 601C214.3 601 171.7 601 128.8 601C86 601 43 601 21.5 601L0 601Z" fill="#d53867"></path><path d="M0 554L21.5 550C43 546 86 538 128.8 535.2C171.7 532.3 214.3 534.7 257.2 539.5C300 544.3 343 551.7 385.8 550.3C428.7 549 471.3 539 514.2 541C557 543 600 557 642.8 562.3C685.7 567.7 728.3 564.3 771.2 563.2C814 562 857 563 878.5 563.5L900 564L900 601L878.5 601C857 601 814 601 771.2 601C728.3 601 685.7 601 642.8 601C600 601 557 601 514.2 601C471.3 601 428.7 601 385.8 601C343 601 300 601 257.2 601C214.3 601 171.7 601 128.8 601C86 601 43 601 21.5 601L0 601Z" fill="#c62368"></path></svg>